<?xml version="1.0" encoding="utf-8"?>
<!-- Generator: Adobe Illustrator 24.3.0, SVG Export Plug-In . SVG Version: 6.00 Build 0)  -->
<svg version="1.1" id="Camada_1" xmlns="http://www.w3.org/2000/svg" xmlns:xlink="http://www.w3.org/1999/xlink" x="0px" y="0px"
	 viewBox="0 0 880 550" enable-background="new 0 0 880 550" xml:space="preserve">
<g>
	<path fill="#2DCCD3" d="M835.28,369.07c12.15-29.96,18.31-61.6,18.31-94.07c0-32.46-6.16-64.11-18.31-94.07
		c-12.58-31.02-31.06-58.85-54.92-82.71s-51.69-42.34-82.71-54.92C667.69,31.16,636.05,25,603.58,25
		c-32.46,0-64.11,6.16-94.07,18.31C484.05,53.64,460.73,67.94,440,85.93c-20.73-17.99-44.05-32.3-69.52-42.63
		C340.53,31.16,308.88,25,276.42,25s-64.11,6.16-94.07,18.31c-31.02,12.58-58.85,31.06-82.71,54.92s-42.34,51.69-54.92,82.71
		c-12.15,29.96-18.31,61.6-18.31,94.07c0,32.46,6.16,64.11,18.31,94.07c12.58,31.02,31.06,58.85,54.92,82.71
		c23.86,23.86,51.69,42.34,82.71,54.92c29.96,12.15,61.6,18.31,94.07,18.31c32.46,0,64.11-6.16,94.07-18.31
		c25.47-10.33,48.78-24.63,69.52-42.63c20.73,17.99,44.05,32.3,69.52,42.63c29.96,12.15,61.6,18.31,94.07,18.31
		c32.46,0,64.11-6.16,94.07-18.31c31.02-12.58,58.85-31.06,82.71-54.92C804.22,427.92,822.7,400.09,835.28,369.07z M126.02,425.39
		c-82.93-82.93-82.93-217.86,0-300.78c78.48-78.48,203.54-82.69,287.02-12.62l-55.75,55.75c-9.3-7.04-19.45-12.81-30.34-17.23
		c-16.1-6.53-33.1-9.84-50.54-9.84s-34.44,3.31-50.54,9.84c-16.67,6.76-31.63,16.69-44.45,29.51
		c-12.82,12.82-22.74,27.77-29.51,44.45c-6.53,16.1-9.84,33.1-9.84,50.54s3.31,34.44,9.84,50.54c6.76,16.68,16.69,31.63,29.51,44.45
		s27.77,22.74,44.45,29.51c16.1,6.53,33.1,9.84,50.54,9.84s34.44-3.31,50.54-9.84c16.68-6.76,31.63-16.69,44.45-29.51l163.58-163.6
		c37.83-37.83,99.37-37.83,137.2,0s37.83,99.37,0,137.2c-33.31,33.31-85.03,37.28-122.73,11.91l67.32-67.32
		c7.29-7.29,7.29-19.1,0-26.38c-7.29-7.29-19.1-7.29-26.38,0L426.81,425.39C343.88,508.32,208.95,508.32,126.02,425.39z
		 M466.96,438.01l55.75-55.75c9.3,7.04,19.45,12.81,30.34,17.23c16.1,6.53,33.1,9.84,50.54,9.84s34.44-3.31,50.54-9.84
		c16.68-6.76,31.63-16.69,44.45-29.51s22.74-27.77,29.51-44.45c6.53-16.1,9.84-33.1,9.84-50.54s-3.31-34.44-9.84-50.54
		c-6.76-16.68-16.69-31.63-29.51-44.45s-27.77-22.74-44.45-29.51c-16.1-6.53-33.1-9.84-50.54-9.84s-34.44,3.31-50.54,9.84
		c-16.67,6.76-31.63,16.69-44.45,29.51L345.02,343.6c-37.83,37.83-99.37,37.83-137.2,0s-37.83-99.37,0-137.2
		c33.31-33.31,85.03-37.28,122.73-11.91l-67.32,67.32c-7.29,7.29-7.29,19.1,0,26.38c7.29,7.29,19.1,7.29,26.38,0l163.58-163.58
		c82.93-82.93,217.86-82.93,300.78,0s82.93,217.86,0,300.78C675.49,503.87,550.43,508.08,466.96,438.01z"/>
	<g>
		<g>
			
				<linearGradient id="SVGID_1_" gradientUnits="userSpaceOnUse" x1="-1826.4718" y1="-1654.8303" x2="-1902.9745" y2="-1654.8303" gradientTransform="matrix(0.7071 0.7071 0.7071 -0.7071 2778.6011 329.4352)">
				<stop  offset="0" style="stop-color:#008C95"/>
				<stop  offset="1" style="stop-color:#3DDEED;stop-opacity:0"/>
			</linearGradient>
			<path fill="url(#SVGID_1_)" d="M330.55,194.49l26.75-26.75c-9.3-7.04-19.45-12.81-30.34-17.23c-16.1-6.53-33.1-9.84-50.54-9.84
				c-0.08,0-0.16,0-0.24,0l-53.63,53.63C255.11,172.55,298.04,172.61,330.55,194.49z"/>
			
				<linearGradient id="SVGID_2_" gradientUnits="userSpaceOnUse" x1="440" y1="-894.09" x2="343.62" y2="-894.09" gradientTransform="matrix(1 0 0 -1 0 -816)">
				<stop  offset="0" style="stop-color:#008C95"/>
				<stop  offset="1" style="stop-color:#3DDEED;stop-opacity:0"/>
			</linearGradient>
			<path fill="url(#SVGID_2_)" d="M420.36,104.92c6.17-6.64,12.69-12.94,19.53-18.88l0.11-0.11
				c-20.14-17.48-42.72-31.48-67.35-41.73l-29.03,29.03c24.83,8.23,48.44,21.14,69.42,38.75L420.36,104.92z"/>
		</g>
		<g>
			
				<linearGradient id="SVGID_3_" gradientUnits="userSpaceOnUse" x1="-5981.0503" y1="-7239.6436" x2="-6057.5527" y2="-7239.6436" gradientTransform="matrix(-0.7071 -0.7071 -0.7071 0.7071 -8785.3252 1231.8838)">
				<stop  offset="0" style="stop-color:#008C95"/>
				<stop  offset="1" style="stop-color:#3DDEED;stop-opacity:0"/>
			</linearGradient>
			<path fill="url(#SVGID_3_)" d="M549.45,355.51l-26.75,26.75c9.3,7.04,19.45,12.81,30.34,17.23c16.1,6.53,33.1,9.84,50.54,9.84
				c0.08,0,0.16,0,0.24,0l53.63-53.63C624.89,377.45,581.96,377.39,549.45,355.51z"/>
			
				<linearGradient id="SVGID_4_" gradientUnits="userSpaceOnUse" x1="-6446.7236" y1="-1905.4093" x2="-6543.1035" y2="-1905.4093" gradientTransform="matrix(-1 0 0 1 -6006.7236 2377.3193)">
				<stop  offset="0" style="stop-color:#008C95"/>
				<stop  offset="1" style="stop-color:#3DDEED;stop-opacity:0"/>
			</linearGradient>
			<path fill="url(#SVGID_4_)" d="M459.64,445.08c-6.17,6.64-12.69,12.94-19.53,18.88l-0.11,0.11
				c20.14,17.48,42.72,31.48,67.35,41.73l29.03-29.03c-24.83-8.23-48.44-21.14-69.42-38.75L459.64,445.08z"/>
		</g>
	</g>
</g>
</svg>
