<svg width="108" height="108" viewBox="0 0 108 108" fill="none" xmlns="http://www.w3.org/2000/svg">
<path d="M52.0069 47.804C50.2018 47.804 48.7365 46.3209 48.7365 44.5005C48.7365 42.68 50.2018 41.1969 52.0069 41.1969C52.3325 41.1969 52.6369 41.2461 52.9271 41.3305C52.3254 41.5905 51.9078 42.195 51.9078 42.9049C51.9078 43.8468 52.6581 44.6059 53.5855 44.6059C54.2792 44.6059 54.8738 44.1771 55.1357 43.5656C55.2207 43.8679 55.2702 44.1771 55.2702 44.5005C55.2702 46.328 53.7978 47.804 51.9998 47.804H52.0069ZM51.9998 38.9337C48.9701 38.9337 46.5066 41.4289 46.5066 44.5005C46.5066 47.5721 48.963 50.0673 51.9998 50.0673C55.0366 50.0673 57.493 47.5721 57.493 44.5005C57.493 41.4289 55.0366 38.9337 51.9998 38.9337Z" fill="#003399"/>
<path d="M52.0065 52.3167C47.7521 52.3167 44.2905 48.8163 44.2905 44.5006C44.2905 40.1849 47.7521 36.6846 52.0065 36.6846C56.2609 36.6846 59.7224 40.1849 59.7224 44.5006C59.7224 48.8163 56.2609 52.3167 52.0065 52.3167ZM52.0065 32.1721C45.2887 32.1721 39.8309 37.6968 39.8309 44.5006C39.8309 51.3045 45.2887 56.8292 52.0065 56.8292C58.7243 56.8292 64.1821 51.3045 64.1821 44.5006C64.1821 37.6968 58.7243 32.1721 52.0065 32.1721Z" fill="#003399"/>
<path d="M52.0064 65.84C40.3617 65.84 30.9327 56.2879 30.9327 44.4935C30.9327 32.6992 40.3688 23.1471 52.0064 23.1471C63.644 23.1471 73.0801 32.6992 73.0801 44.4935C73.0801 56.2879 63.644 65.84 52.0064 65.84ZM69.3354 6.60828C67.8842 13.9323 61.3788 19.4569 53.5779 19.4569C39.7317 19.4569 28.4622 30.6468 28.4622 44.3881C28.4622 58.1294 39.7317 69.3193 53.5779 69.3193C61.4566 69.3193 68.0187 74.8158 69.484 82.1047C84.3284 75.9263 94.7484 61.3697 94.7484 44.3881C94.7484 27.4065 84.2576 12.7444 69.3354 6.60828Z" fill="#F18700"/>
<path d="M69.7607 82.0836C64.8622 84.1219 59.4893 85.2465 53.8546 85.2465C48.2198 85.2465 42.8399 84.1219 37.9414 82.0836C23.097 75.9053 12.677 61.3486 12.677 44.367C12.677 27.3854 23.1749 12.7233 38.0971 6.58017C42.9532 4.58399 48.2765 3.48047 53.8546 3.48047C59.4327 3.48047 64.756 4.58399 69.6121 6.5872C68.1609 13.9112 61.6555 19.4359 53.8546 19.4359C40.0084 19.4359 28.7389 30.6257 28.7389 44.367C28.7389 58.1083 40.0084 69.2982 53.8546 69.2982C61.7333 69.2982 68.2954 74.7947 69.7607 82.0836Z" fill="#003399"/>
<path d="M98.5215 102.952C98.5215 103.718 97.9056 104.414 97.0491 104.414C96.0935 104.414 95.1661 104.119 94.3733 103.599C85.0151 97.3993 70.3902 93.414 53.9531 93.414C37.5161 93.414 22.8912 97.3993 13.533 103.599C12.733 104.126 11.8128 104.414 10.8572 104.414C9.72454 104.414 9.01665 103.198 9.59003 102.221L22.9337 79.258C23.8681 77.6484 26.0554 77.2829 27.4783 78.4989C34.5996 84.5577 43.8445 88.2197 53.9602 88.2197C64.0759 88.2197 73.3208 84.5577 80.4421 78.4989C81.865 77.2899 84.0453 77.6414 84.9868 79.265L98.3375 102.221C98.472 102.453 98.5357 102.706 98.5357 102.945" fill="#003399"/>
</svg>
