<svg width="212" height="42" viewBox="0 0 212 42" fill="none" xmlns="http://www.w3.org/2000/svg">
<g clip-path="url(#clip0_100_1807)">
<path d="M58.0919 12.2681L56.9245 13.1376C56.2917 12.3078 55.5284 11.68 54.6346 11.255C53.7411 10.8306 52.7604 10.6179 51.6923 10.6179C50.5183 10.6179 49.4336 10.8979 48.438 11.4579C47.4422 12.0179 46.6689 12.7702 46.1186 13.7155C45.5677 14.6613 45.2924 15.7265 45.2924 16.9124C45.2924 18.6977 45.9059 20.1354 47.1324 21.2259C48.3588 22.3164 49.905 22.8614 51.7712 22.8614C53.8286 22.8614 55.5463 22.0578 56.9245 20.4501L58.0919 21.3293C57.3601 22.2586 56.4467 22.9766 55.3518 23.4836C54.2572 23.9909 53.0374 24.245 51.6923 24.245C49.1205 24.245 47.0926 23.3913 45.6091 21.6852C44.3694 20.2425 43.7495 18.6086 43.7495 16.7841C43.7495 14.6428 44.5029 12.8378 46.0096 11.3689C47.5164 9.89968 49.4005 9.16523 51.6625 9.16523C53.0341 9.16523 54.2721 9.43696 55.3767 9.98043C56.4812 10.5239 57.3863 11.2865 58.0919 12.2681Z" fill="white"/>
<path d="M65.9155 14.1256C64.7619 14.1256 63.7693 14.5543 62.9382 15.4104C62.1076 16.2669 61.6921 17.3013 61.6921 18.5133C61.6921 19.2973 61.8816 20.0303 62.2607 20.7118C62.64 21.3939 63.1525 21.9176 63.7988 22.2833C64.4452 22.6485 65.1508 22.8316 65.9155 22.8316C66.6937 22.8316 67.4043 22.6485 68.0471 22.2833C68.6901 21.9176 69.1996 21.3939 69.5753 20.7118C69.9513 20.0303 70.1392 19.2973 70.1392 18.5133C70.1392 17.3013 69.7237 16.2669 68.8931 15.4104C68.0622 14.5543 67.0694 14.1256 65.9155 14.1256ZM65.9155 12.7623C67.5839 12.7623 68.969 13.3647 70.0702 14.5707C71.0655 15.6771 71.5637 16.9849 71.5637 18.4937C71.5637 20.002 71.036 21.3212 69.9811 22.4512C68.9257 23.5808 67.5707 24.146 65.9155 24.146C64.2537 24.146 62.8971 23.5808 61.8455 22.4512C60.7936 21.3212 60.2676 20.002 60.2676 18.4937C60.2676 16.9917 60.7655 15.687 61.7613 14.5805C62.8623 13.3686 64.2474 12.7623 65.9155 12.7623Z" fill="white"/>
<path d="M74.1254 20.0252L74.1055 18.8693C74.0857 18.3027 74.1086 17.8216 74.1748 17.4265C74.3199 16.1815 74.6363 15.2687 75.1243 14.6892C75.599 14.1819 76.0837 13.7897 76.5786 13.5133C77.396 13.1639 78.3292 12.9991 79.3777 13.0192C80.1951 13.0192 80.9518 13.2253 81.6478 13.6368C82.3432 14.0485 82.8395 14.6017 83.1363 15.297C83.4329 15.9919 83.5816 17.0804 83.5816 18.5627V24.1364H82.1965V18.9677C82.1965 17.7165 82.1435 16.8795 82.0384 16.4581C81.8734 15.74 81.5471 15.2311 81.0591 14.9314C80.5711 14.6316 79.8489 14.4816 78.8931 14.4816C78.0487 14.4816 77.2969 14.7252 76.6376 15.213C75.9783 15.7004 75.6716 16.3659 75.7179 17.2091C75.5924 17.7489 75.5301 18.7343 75.5301 20.1639V24.1364H74.1254V20.0252Z" fill="white"/>
<path d="M90.5253 10.6081C89.8395 10.2393 89.1667 10.2093 88.5074 10.519C87.914 10.8351 87.5314 11.7082 87.3601 13.1377V14.2246H89.9317V15.4202H87.3502V24.1558H85.9458V12.9007C85.9654 12.018 86.1466 11.2932 86.4895 10.7266C87.017 9.63302 87.8611 9.06641 89.0219 9.02672C89.6153 8.88865 90.2616 9.0303 90.9604 9.45168C90.8484 9.72893 90.7035 10.1142 90.5253 10.6081Z" fill="white"/>
<path d="M102.297 17.3672C102.112 16.6228 101.841 16.0279 101.485 15.5834C101.129 15.1388 100.658 14.7798 100.071 14.5064C99.4836 14.2328 98.8673 14.0964 98.2213 14.0964C97.1595 14.0964 96.2464 14.439 95.4814 15.1239C94.9272 15.6247 94.5088 16.3725 94.2249 17.3672H102.297ZM102.297 20.2822L103.463 20.9045C103.088 21.6621 102.646 22.2716 102.138 22.7325C101.63 23.194 101.06 23.5451 100.427 23.7848C99.7939 24.026 99.0784 24.146 98.2806 24.146C96.5134 24.146 95.1316 23.5677 94.1361 22.4117C93.1402 21.2553 92.6426 19.9495 92.6426 18.4937C92.6426 17.1168 93.0644 15.8915 93.9085 14.8175C94.9769 13.4471 96.4111 12.7623 98.2113 12.7623C100.051 12.7623 101.525 13.4637 102.633 14.8669C103.417 15.8549 103.813 17.087 103.82 18.5627H94.0768C94.1027 19.8274 94.5052 20.8638 95.2834 21.6705C96.0616 22.4776 97.021 22.8808 98.1617 22.8808C98.7159 22.8808 99.253 22.7842 99.7741 22.5894C100.295 22.3954 100.738 22.1397 101.105 21.8239C101.47 21.5078 101.868 20.9935 102.297 20.2822Z" fill="white"/>
<path d="M105.887 19.1753V17.8711C105.992 17.2189 106.144 16.6888 106.342 16.2799C106.803 15.147 107.423 14.3169 108.201 13.7897C108.979 13.2628 109.626 12.999 110.14 12.999C110.522 12.999 110.931 13.1244 111.367 13.3747L110.644 14.5408C110.031 14.3169 109.423 14.4981 108.819 15.0843C108.216 15.671 107.799 16.3097 107.568 17.0016C107.397 17.614 107.311 18.7637 107.311 20.4502V24.1161H105.887V19.1753Z" fill="white"/>
<path d="M116.975 8.52288H118.36L121.248 11.0823H119.458L117.707 9.5602L115.867 11.0823H114.008L116.975 8.52288ZM121.683 17.3672C121.499 16.6228 121.228 16.0279 120.872 15.5834C120.516 15.1388 120.045 14.7798 119.458 14.5064C118.871 14.2328 118.254 14.0964 117.608 14.0964C116.546 14.0964 115.633 14.439 114.868 15.1239C114.314 15.6247 113.895 16.3725 113.612 17.3672H121.683ZM121.683 20.2822L122.85 20.9045C122.474 21.6621 122.032 22.2716 121.525 22.7325C121.017 23.194 120.447 23.5451 119.814 23.7848C119.181 24.026 118.465 24.146 117.667 24.146C115.9 24.146 114.518 23.5677 113.523 22.4117C112.527 21.2553 112.029 19.9495 112.029 18.4937C112.029 17.1168 112.451 15.8915 113.295 14.8175C114.364 13.4471 115.798 12.7623 117.598 12.7623C119.438 12.7623 120.911 13.4637 122.02 14.8669C122.804 15.8549 123.2 17.087 123.207 18.5627H113.463C113.49 19.8274 113.892 20.8638 114.67 21.6705C115.448 22.4776 116.408 22.8808 117.549 22.8808C118.102 22.8808 118.64 22.7842 119.161 22.5894C119.682 22.3954 120.125 22.1397 120.492 21.8239C120.857 21.5078 121.254 20.9935 121.683 20.2822Z" fill="white"/>
<path d="M126.223 20.0252L126.204 18.8693C126.184 18.3027 126.207 17.8216 126.273 17.4265C126.418 16.1815 126.734 15.2687 127.222 14.6892C127.697 14.1819 128.182 13.7897 128.677 13.5133C129.494 13.1639 130.427 12.9991 131.476 13.0192C132.293 13.0192 133.05 13.2253 133.746 13.6368C134.441 14.0485 134.938 14.6017 135.234 15.297C135.531 15.9919 135.679 17.0804 135.679 18.5627V24.1364H134.295V18.9677C134.295 17.7165 134.242 16.8795 134.137 16.4581C133.972 15.74 133.645 15.2311 133.157 14.9314C132.669 14.6316 131.947 14.4816 130.991 14.4816C130.147 14.4816 129.395 14.7252 128.736 15.213C128.076 15.7004 127.769 16.3659 127.816 17.2091C127.69 17.7489 127.628 18.7343 127.628 20.1639V24.1364H126.223V20.0252Z" fill="white"/>
<path d="M149.181 15.2919L148.073 15.9837C147.117 14.7056 145.811 14.0664 144.156 14.0664C142.831 14.0664 141.731 14.4915 140.857 15.3414C139.983 16.1914 139.547 17.2256 139.547 18.4443C139.547 19.2344 139.748 19.9809 140.15 20.6824C140.552 21.384 141.103 21.926 141.802 22.3082C142.501 22.6897 143.285 22.8808 144.156 22.8808C145.758 22.8808 147.064 22.2484 148.073 20.9838L149.181 21.705C148.66 22.4828 147.962 23.0835 147.089 23.5084C146.215 23.9334 145.217 24.146 144.096 24.146C142.389 24.146 140.969 23.6026 139.838 22.5153C138.708 21.4283 138.142 20.1075 138.142 18.553C138.142 17.4991 138.407 16.5219 138.938 15.6231C139.469 14.7237 140.194 14.022 141.114 13.5185C142.034 13.0142 143.068 12.7623 144.215 12.7623C144.928 12.7623 145.618 12.8709 146.287 13.088C146.957 13.3058 147.525 13.5904 147.994 13.9429C148.462 14.2957 148.858 14.7454 149.181 15.2919Z" fill="white"/>
<path d="M151.644 13.2959H153.039V24.1364H151.644V13.2959ZM152.337 8.83901C152.653 8.83901 152.925 8.95145 153.152 9.17523C153.38 9.39901 153.493 9.66909 153.493 9.98519C153.493 10.3016 153.38 10.5733 153.152 10.8007C152.925 11.028 152.653 11.1418 152.337 11.1418C152.02 11.1418 151.749 11.028 151.526 10.8007C151.301 10.5733 151.189 10.3016 151.189 9.98519C151.189 9.66909 151.301 9.39901 151.526 9.17523C151.749 8.95145 152.02 8.83901 152.337 8.83901Z" fill="white"/>
<path d="M161.05 14.1257C159.896 14.1257 158.904 14.5543 158.073 15.4105C157.242 16.267 156.827 17.3014 156.827 18.5133C156.827 19.2974 157.016 20.0304 157.395 20.7118C157.775 21.3939 158.287 21.9176 158.934 22.2833C159.58 22.6486 160.285 22.8316 161.05 22.8316C163.523 22.581 164.911 21.142 165.215 18.5133C165.215 17.3014 164.809 16.267 163.998 15.4105C163.187 14.5543 162.204 14.1257 161.05 14.1257ZM161.05 12.7623C162.719 12.7623 164.103 13.3648 165.205 14.5708C166.22 15.671 166.728 16.9784 166.728 18.4938C166.741 22.2354 166.741 24.1364 166.728 24.1956C166.095 24.1956 165.604 24.1956 165.254 24.1956C165.254 24.1493 165.254 23.3293 165.254 21.7348C164.483 23.1709 163.081 23.9746 161.05 24.146C159.389 24.146 158.032 23.5809 156.98 22.4513C155.928 21.3212 155.402 20.0021 155.402 18.4938C155.402 16.9918 155.9 15.687 156.896 14.5806C157.997 13.3686 159.382 12.7623 161.05 12.7623Z" fill="white"/>
<path d="M181.954 24.5858H181.049L176.996 14.2373L172.85 24.5858H171.966L167.578 9.07081H169.976L172.707 18.7257L176.539 9.07081H177.443L181.24 18.7274L184.015 9.07081H186.404L181.954 24.5858Z" fill="white"/>
<path d="M188.87 16.9371H195.771C195.619 16.5004 195.427 16.1366 195.199 15.8526C194.887 15.4621 194.464 15.1403 193.939 14.8959C193.412 14.6505 192.851 14.5262 192.273 14.5262C191.311 14.5262 190.509 14.827 189.82 15.4444C189.434 15.793 189.115 16.2945 188.87 16.9371ZM192.331 24.5767C190.442 24.5767 188.938 23.9424 187.86 22.6922C186.8 21.461 186.263 20.0478 186.263 18.4938C186.263 17.0245 186.719 15.698 187.621 14.5522C188.768 13.0795 190.331 12.3321 192.262 12.3321C194.231 12.3321 195.833 13.0955 197.021 14.6009C197.864 15.6611 198.295 16.9943 198.301 18.5609L198.302 18.9927H188.584C188.68 19.953 189.029 20.7341 189.645 21.3726C190.344 22.0985 191.184 22.4513 192.213 22.4513C192.712 22.4513 193.204 22.3623 193.673 22.1866C194.144 22.0111 194.548 21.7802 194.873 21.4987C195.203 21.2147 195.574 20.7308 195.978 20.0605L196.189 19.7101L198.085 20.7216L197.9 21.0955C197.503 21.897 197.025 22.5546 196.479 23.051C195.933 23.5466 195.311 23.9288 194.631 24.1875C193.952 24.4455 193.179 24.5767 192.331 24.5767Z" fill="white"/>
<path d="M205.873 14.4573C205.186 14.4573 204.525 14.6329 203.908 14.9799C203.286 15.3293 202.823 15.7889 202.49 16.3853C202.158 16.9801 201.99 17.6562 201.99 18.3946C201.99 19.5464 202.358 20.4789 203.113 21.2449C203.866 22.0095 204.762 22.3816 205.854 22.3816C206.556 22.3816 207.21 22.2067 207.797 21.8633C208.392 21.5129 208.854 21.0391 209.208 20.4158C209.558 19.8 209.735 19.1331 209.735 18.4341C209.735 17.7478 209.555 17.0782 209.201 16.4457C208.849 15.8157 208.37 15.3218 207.777 14.9765C207.185 14.6321 206.545 14.4573 205.873 14.4573ZM205.972 24.5767C205.033 24.5767 204.137 24.3934 203.312 24.0314C202.482 23.6683 201.712 23.0914 201.021 22.3176L200.973 22.2522C200.351 21.2164 199.973 20.179 199.847 19.1692L199.844 8.41903H202.09V13.8206C202.511 13.4425 202.963 13.1358 203.439 12.904C204.221 12.5245 205.086 12.3321 206.011 12.3321C207.654 12.3321 209.079 12.9376 210.246 14.1315C211.411 15.3234 212.001 16.7876 212.001 18.4836C212.001 20.1554 211.407 21.6035 210.235 22.788C209.06 23.9751 207.626 24.5767 205.972 24.5767Z" fill="white"/>
<path d="M17.6301 18.4435C16.8844 18.4435 16.2789 17.8266 16.2789 17.0665C16.2789 16.3081 16.8844 15.6911 17.6301 15.6911C17.7627 15.6911 17.8908 15.7105 18.0112 15.7467C17.7627 15.8551 17.5894 16.1064 17.5894 16.3999C17.5894 16.7912 17.9013 17.1086 18.2854 17.1086C18.5731 17.1086 18.8187 16.9311 18.9256 16.6783C18.9617 16.8016 18.9812 16.9326 18.9812 17.0665C18.9812 17.8266 18.3742 18.4435 17.6301 18.4435ZM17.6301 14.7519C16.3767 14.7519 15.3584 15.7904 15.3584 17.0665C15.3584 18.3442 16.3767 19.3826 17.6301 19.3826C18.8833 19.3826 19.9016 18.3442 19.9016 17.0665C19.9016 15.7904 18.8833 14.7519 17.6301 14.7519Z" fill="white"/>
<path d="M17.63 20.3202C15.8689 20.3202 14.4379 18.8619 14.4379 17.0665C14.4379 15.2728 15.8689 13.8145 17.63 13.8145C19.3909 13.8145 20.8219 15.2728 20.8219 17.0665C20.8219 18.8619 19.3909 20.3202 17.63 20.3202ZM17.63 11.9378C14.8537 11.9378 12.5957 14.2389 12.5957 17.0665C12.5957 19.8958 14.8537 22.1968 17.63 22.1968C20.4062 22.1968 22.6643 19.8958 22.6643 17.0665C22.6643 14.2389 20.4062 11.9378 17.63 11.9378Z" fill="white"/>
<path d="M24.9746 32.2352C24.2499 29.2208 21.4965 27.0645 18.3184 27.0645C12.7752 27.0645 8.26707 22.5606 8.26707 17.0277C8.26707 11.4899 12.7752 6.98066 18.3184 6.98066C21.4603 6.98066 24.1932 4.81424 24.9125 1.78412C31.0097 4.42125 34.9329 10.3779 34.9329 17.0277C34.9329 23.6517 31.0356 29.5929 24.9746 32.2352ZM24.9075 1.31892C24.9075 1.30845 24.9125 1.30322 24.9125 1.29302C22.9043 0.455227 20.7045 0.000221252 18.396 0.000221252C16.0877 0.000221252 13.8828 0.455219 11.8797 1.28778C5.70493 3.84223 1.3623 9.92314 1.3623 17.0123C1.3623 24.0757 5.67389 30.1358 11.8124 32.7057C13.8415 33.5537 16.0618 34.0244 18.396 34.0244C20.6063 34.0244 22.7232 33.6003 24.6589 32.8297C24.7211 32.809 24.7831 32.7831 24.8401 32.7574L24.9022 32.7316C24.928 32.7214 24.9487 32.7109 24.9746 32.7007C31.2891 30.0272 35.3624 23.8844 35.3624 17.0277C35.3624 10.1453 31.2635 3.98168 24.9075 1.31892Z" fill="white"/>
<path d="M24.9743 32.7007V32.7056C24.9484 32.7161 24.9277 32.7263 24.9019 32.7316C24.9277 32.7213 24.9484 32.7109 24.9743 32.7007Z" fill="white"/>
<path d="M36.8682 41.3906C36.8682 41.7095 36.6139 42.0002 36.2583 42.0002C35.8635 42.0002 35.4795 41.8781 35.151 41.6598C31.2799 39.0806 25.2317 37.4207 18.4335 37.4207C11.6367 37.4207 5.5872 39.0806 1.71742 41.6598C1.38747 41.8781 1.00483 42.0002 0.60871 42.0002C0.140182 42.0002 -0.152055 41.4945 0.082963 41.088L5.60347 31.5347C5.99194 30.8627 6.89397 30.7136 7.48362 31.2188C10.4258 33.7396 14.2514 35.2628 18.4335 35.2628C22.616 35.2628 26.4408 33.7394 29.385 31.2191C29.9745 30.7145 30.8763 30.8636 31.2644 31.5352L36.7854 41.088C36.8412 41.1859 36.8682 41.2897 36.8682 41.3906Z" fill="white"/>
<path d="M17.6736 25.5928C13.0593 25.5928 9.31446 21.783 9.31446 17.0786C9.31446 12.3743 13.0593 8.56449 17.6736 8.56449C22.2964 8.56449 26.0413 12.3743 26.0413 17.0786C26.0413 21.783 22.2964 25.5928 17.6736 25.5928ZM17.6736 8.0654C12.7839 8.0654 8.81543 12.0989 8.81543 17.0786C8.81543 22.0581 12.7839 26.1001 17.6736 26.1001C22.5721 26.1001 26.5404 22.0581 26.5404 17.0786C26.5404 12.0989 22.5721 8.0654 17.6736 8.0654Z" fill="white"/>
<path d="M24.6587 32.8297V32.835L24.8399 32.7575C24.7829 32.7831 24.7209 32.809 24.6587 32.8297Z" fill="white"/>
</g>
<defs>
<clipPath id="clip0_100_1807">
<rect width="212" height="42" fill="white"/>
</clipPath>
</defs>
</svg>
