<?xml version="1.0" encoding="utf-8"?>
<!-- Generator: Adobe Illustrator 24.3.0, SVG Export Plug-In . SVG Version: 6.00 Build 0)  -->
<svg version="1.1" id="Camada_1" xmlns="http://www.w3.org/2000/svg" xmlns:xlink="http://www.w3.org/1999/xlink" x="0px" y="0px"
	 viewBox="0 0 1950 550" enable-background="new 0 0 1950 550" xml:space="preserve">
<g>
	<g>
		<path fill="#2DCCD3" d="M1158.15,157.19c18.38,11.12,32.64,26.52,42.8,46.18s15.23,42.07,15.23,67.22c0,5.16-1.61,9.27-4.84,12.33
			c-3.22,3.07-7.42,4.59-12.57,4.59H1003.4c2.58,26.43,12.9,47.88,30.95,64.32c18.05,16.44,40.62,24.66,67.7,24.66
			c11.6,0,23.29-2.01,35.06-6.05c11.77-4.03,21.2-9.11,28.29-15.23c4.19-3.22,8.54-4.83,13.05-4.83c3.54,0,7.1,1.29,10.64,3.87
			c4.19,3.87,6.29,8.22,6.29,13.06c0,4.19-1.77,7.9-5.32,11.12c-10.64,9.03-24.18,16.53-40.63,22.49
			c-16.44,5.96-32.24,8.94-47.39,8.94c-25.79,0-48.84-5.72-69.15-17.16c-20.31-11.44-36.19-27.4-47.63-47.88
			c-11.44-20.47-17.16-43.6-17.16-69.4c0-26.11,5.4-49.4,16.2-69.88c10.8-20.47,25.79-36.43,44.97-47.87
			c19.18-11.44,41.02-17.17,65.53-17.17C1118.67,140.5,1139.78,146.06,1158.15,157.19z M1033.88,196.6
			c-16.12,15.15-25.96,35.14-29.5,59.96h176.99c-2.58-24.82-11.61-44.81-27.08-59.96s-35.3-22.73-59.48-22.73
			C1070.31,173.87,1049.99,181.45,1033.88,196.6z"/>
		<path fill="#2DCCD3" d="M1274.7,34.84c3.54-3.38,7.9-5.08,13.06-5.08c5.48,0,9.91,1.7,13.3,5.08c3.38,3.39,5.08,7.82,5.08,13.3
			v275.64c0,13.86,2.82,25.15,8.46,33.85s12.81,13.05,21.52,13.05h12.09c4.83,0,8.7,1.7,11.6,5.08c2.9,3.39,4.36,7.82,4.36,13.3
			s-2.02,9.92-6.05,13.3c-4.03,3.39-9.26,5.08-15.71,5.08h-6.29c-19.67,0-35.7-7.82-48.12-23.45c-12.41-15.64-18.62-35.7-18.62-60.2
			V48.14C1269.38,42.66,1271.15,38.23,1274.7,34.84z"/>
		<path fill="#2DCCD3" d="M1589.99,157.91c20.31,11.61,36.35,27.73,48.12,48.36s17.65,43.68,17.65,69.15s-5.81,48.44-17.41,68.91
			c-11.61,20.48-27.65,36.51-48.12,48.12s-43.44,17.41-68.91,17.41c-25.47,0-48.44-5.8-68.91-17.41
			c-20.47-11.6-36.51-27.64-48.11-48.12c-11.61-20.47-17.41-43.44-17.41-68.91s5.8-48.51,17.41-69.15
			c11.6-20.63,27.64-36.75,48.11-48.36c20.47-11.6,43.44-17.41,68.91-17.41C1546.79,140.5,1569.68,146.31,1589.99,157.91z
			 M1471.27,187.41c-15,8.7-26.76,20.71-35.3,36.02c-8.55,15.32-12.81,32.64-12.81,51.98c0,19.02,4.27,36.19,12.81,51.5
			c8.54,15.32,20.31,27.33,35.3,36.03s31.68,13.05,50.05,13.05c18.7,0,35.46-4.35,50.29-13.05c14.83-8.7,26.43-20.71,34.82-36.03
			c8.38-15.31,12.58-32.48,12.58-51.5c0-19.34-4.19-36.67-12.58-51.98c-8.38-15.31-19.99-27.32-34.82-36.02
			c-14.83-8.7-31.59-13.06-50.29-13.06C1502.95,174.35,1486.26,178.71,1471.27,187.41z"/>
		<path fill="#2DCCD3" d="M1875.3,151.38c15.79,7.25,28.53,17.33,38.21,30.22c2.58,4.19,3.87,7.9,3.87,11.12
			c0,5.48-2.58,9.84-7.74,13.05c-2.26,1.61-5.32,2.42-9.19,2.42c-6.77,0-12.41-2.41-16.93-7.25c-15.8-18.05-37.4-27.08-64.8-27.08
			c-17.73,0-31.91,3.63-42.55,10.89s-15.96,16.36-15.96,27.32c0,11.61,5,20.88,14.99,27.8c9.99,6.93,27.73,12.49,53.19,16.68
			c34.49,5.81,59.15,15.23,73.99,28.29s22.25,29.26,22.25,48.6c0,14.83-4.44,28.05-13.3,39.65c-8.87,11.61-21.2,20.63-36.99,27.08
			c-15.8,6.45-33.69,9.67-53.68,9.67c-19.99,0-39.17-3.38-57.54-10.16c-18.38-6.77-33.21-16.28-44.49-28.53
			c-3.22-3.87-4.83-7.57-4.83-11.12c0-5.48,2.58-10.31,7.74-14.51c3.87-2.9,7.89-4.35,12.09-4.35c5.48,0,10.16,2.26,14.03,6.77
			c7.73,9.03,17.97,15.96,30.7,20.8s26.84,7.25,42.32,7.25c22.56,0,39.49-3.87,50.78-11.61c11.28-7.74,17.08-17.89,17.41-30.46
			c0-11.6-5.64-21.27-16.93-29.02c-11.29-7.74-29.17-13.54-53.67-17.41c-31.6-5.15-55.21-14.1-70.85-26.84
			c-15.64-12.73-23.45-28.13-23.45-46.19c0-23.53,9.11-41.74,27.32-54.64s41.03-19.34,68.43-19.34
			C1840.97,140.5,1859.5,144.13,1875.3,151.38z"/>
	</g>
	<g>
		<path fill="#2DCCD3" d="M834.23,369.07c12.15-29.96,18.31-61.6,18.31-94.07c0-32.46-6.16-64.11-18.31-94.07
			c-12.58-31.02-31.06-58.85-54.92-82.71S727.62,55.88,696.6,43.3C666.65,31.16,635,25,602.54,25s-64.11,6.16-94.07,18.31
			C483,53.64,459.69,67.94,438.95,85.94c-20.73-17.99-44.05-32.3-69.52-42.63C339.48,31.16,307.83,25,275.37,25
			s-64.11,6.16-94.07,18.31c-31.02,12.58-58.85,31.06-82.71,54.92s-42.34,51.69-54.92,82.71c-12.15,29.96-18.31,61.6-18.31,94.07
			c0,32.46,6.16,64.11,18.31,94.07c12.58,31.02,31.06,58.85,54.92,82.71c23.86,23.86,51.69,42.34,82.71,54.92
			c29.96,12.15,61.6,18.31,94.07,18.31c32.46,0,64.11-6.16,94.07-18.31c25.47-10.33,48.78-24.63,69.52-42.63
			c20.73,17.99,44.05,32.3,69.52,42.63c29.96,12.15,61.6,18.31,94.07,18.31c32.46,0,64.11-6.16,94.07-18.31
			c31.02-12.58,58.85-31.06,82.71-54.92C803.18,427.92,821.65,400.09,834.23,369.07z M124.98,425.39
			c-82.93-82.93-82.93-217.86,0-300.78C203.46,46.13,328.52,41.92,412,111.99l-55.75,55.75c-9.3-7.04-19.45-12.81-30.34-17.23
			c-16.1-6.53-33.1-9.84-50.54-9.84s-34.44,3.31-50.54,9.84c-16.67,6.76-31.63,16.69-44.45,29.51
			c-12.82,12.82-22.74,27.77-29.51,44.45c-6.53,16.1-9.84,33.1-9.84,50.54s3.31,34.44,9.84,50.54
			c6.76,16.68,16.69,31.63,29.51,44.45s27.77,22.74,44.45,29.51c16.1,6.53,33.1,9.84,50.54,9.84s34.44-3.31,50.54-9.84
			c16.68-6.76,31.63-16.69,44.45-29.51l163.58-163.6c37.83-37.83,99.37-37.83,137.2,0s37.83,99.37,0,137.2
			c-33.31,33.31-85.03,37.28-122.73,11.91l67.32-67.32c7.29-7.29,7.29-19.1,0-26.38c-7.29-7.29-19.1-7.29-26.38,0L425.77,425.39
			C342.84,508.32,207.91,508.32,124.98,425.39z M465.92,438.01l55.75-55.75c9.3,7.04,19.45,12.81,30.34,17.23
			c16.1,6.53,33.1,9.84,50.54,9.84s34.44-3.31,50.54-9.84c16.68-6.76,31.63-16.69,44.45-29.51s22.74-27.77,29.51-44.45
			c6.53-16.1,9.84-33.1,9.84-50.54s-3.31-34.44-9.84-50.54c-6.76-16.68-16.69-31.63-29.51-44.45s-27.77-22.74-44.45-29.51
			c-16.1-6.53-33.1-9.84-50.54-9.84s-34.44,3.31-50.54,9.84c-16.67,6.76-31.63,16.69-44.45,29.51L343.97,343.6
			c-37.83,37.83-99.37,37.83-137.2,0s-37.83-99.37,0-137.2c33.31-33.31,85.03-37.28,122.73-11.91l-67.32,67.32
			c-7.29,7.29-7.29,19.1,0,26.38c7.29,7.29,19.1,7.29,26.38,0l163.58-163.58c82.93-82.93,217.86-82.93,300.78,0
			s82.93,217.86,0,300.78C674.45,503.87,549.39,508.08,465.92,438.01z"/>
		<g>
			<g>
				
					<linearGradient id="SVGID_1_" gradientUnits="userSpaceOnUse" x1="-1386.0747" y1="3339.6089" x2="-1462.5773" y2="3339.6089" gradientTransform="matrix(0.7071 0.7071 -0.7071 0.7071 3657.4534 -1173.2766)">
					<stop  offset="0" style="stop-color:#008C95"/>
					<stop  offset="1" style="stop-color:#3DDEED;stop-opacity:0"/>
				</linearGradient>
				<path fill="url(#SVGID_1_)" d="M329.5,194.49l26.75-26.75c-9.3-7.04-19.45-12.81-30.34-17.23c-16.1-6.53-33.1-9.84-50.54-9.84
					c-0.08,0-0.16,0-0.24,0L221.5,194.3C254.07,172.55,296.99,172.61,329.5,194.49z"/>
				
					<linearGradient id="SVGID_2_" gradientUnits="userSpaceOnUse" x1="438.95" y1="1446.09" x2="342.57" y2="1446.09" gradientTransform="matrix(1 0 0 1 0 -1368)">
					<stop  offset="0" style="stop-color:#008C95"/>
					<stop  offset="1" style="stop-color:#3DDEED;stop-opacity:0"/>
				</linearGradient>
				<path fill="url(#SVGID_2_)" d="M419.31,104.92c6.17-6.64,12.69-12.94,19.53-18.88l0.11-0.11
					c-20.14-17.48-42.72-31.48-67.35-41.73l-29.03,29.03c24.83,8.23,48.44,21.14,69.42,38.75L419.31,104.92z"/>
			</g>
			<g>
				
					<linearGradient id="SVGID_3_" gradientUnits="userSpaceOnUse" x1="-3247.3367" y1="6725.8594" x2="-3323.8391" y2="6725.8594" gradientTransform="matrix(-0.7071 -0.7071 0.7071 -0.7071 -6490.0591 2801.5957)">
					<stop  offset="0" style="stop-color:#008C95"/>
					<stop  offset="1" style="stop-color:#3DDEED;stop-opacity:0"/>
				</linearGradient>
				<path fill="url(#SVGID_3_)" d="M548.41,355.51l-26.75,26.75c9.3,7.04,19.45,12.81,30.34,17.23c16.1,6.53,33.1,9.84,50.54,9.84
					c0.08,0,0.16,0,0.24,0l53.63-53.63C623.84,377.45,580.92,377.39,548.41,355.51z"/>
				
					<linearGradient id="SVGID_4_" gradientUnits="userSpaceOnUse" x1="-3271.5657" y1="2524.4094" x2="-3367.9458" y2="2524.4094" gradientTransform="matrix(-1 0 0 -1 -2832.6057 2996.3193)">
					<stop  offset="0" style="stop-color:#008C95"/>
					<stop  offset="1" style="stop-color:#3DDEED;stop-opacity:0"/>
				</linearGradient>
				<path fill="url(#SVGID_4_)" d="M458.6,445.08c-6.17,6.64-12.69,12.94-19.53,18.88l-0.11,0.11
					c20.14,17.48,42.72,31.48,67.35,41.73l29.03-29.03c-24.83-8.23-48.44-21.14-69.42-38.75L458.6,445.08z"/>
			</g>
		</g>
	</g>
</g>
</svg>
