<svg width="310" height="132" viewBox="0 0 310 132" fill="none" xmlns="http://www.w3.org/2000/svg">
<g clip-path="url(#clip0_100_1856)">
<path d="M153.121 33.9379C151.746 33.9379 150.63 32.8026 150.63 31.4041C150.63 30.0082 151.746 28.873 153.121 28.873C153.365 28.873 153.601 28.909 153.823 28.9758C153.365 29.1745 153.046 29.6371 153.046 30.1773C153.046 30.8968 153.62 31.4816 154.328 31.4816C154.859 31.4816 155.311 31.1547 155.508 30.6894C155.574 30.9167 155.611 31.1574 155.611 31.4041C155.611 32.8026 154.492 33.9379 153.121 33.9379ZM153.121 27.1448C150.811 27.1448 148.934 29.0555 148.934 31.4041C148.934 33.7553 150.811 35.666 153.121 35.666C155.43 35.666 157.307 33.7553 157.307 31.4041C157.307 29.0555 155.43 27.1448 153.121 27.1448Z" fill="white"/>
<path d="M153.121 37.391C149.875 37.391 147.239 34.7075 147.239 31.4041C147.239 28.1034 149.875 25.4199 153.121 25.4199C156.366 25.4199 159.003 28.1034 159.003 31.4041C159.003 34.7075 156.366 37.391 153.121 37.391ZM153.121 21.9668C148.004 21.9668 143.843 26.2008 143.843 31.4041C143.843 36.6101 148.004 40.8446 153.121 40.8446C158.237 40.8446 162.398 36.6101 162.398 31.4041C162.398 26.2008 158.237 21.9668 153.121 21.9668Z" fill="white"/>
<path d="M166.655 59.3162C165.32 53.7693 160.245 49.8014 154.389 49.8014C144.174 49.8014 135.866 41.5139 135.866 31.3324C135.866 21.1423 144.174 12.8451 154.389 12.8451C160.179 12.8451 165.215 8.85831 166.541 3.28287C177.777 8.13506 185.007 19.0964 185.007 31.3324C185.007 43.5216 177.825 54.4538 166.655 59.3162ZM166.532 2.4266C166.532 2.40721 166.541 2.39752 166.541 2.37867C162.84 0.837389 158.786 -3.99649e-05 154.532 -3.99649e-05C150.278 -3.99649e-05 146.215 0.837379 142.523 2.36897C131.144 7.06983 123.141 18.2589 123.141 31.3044C123.141 44.3019 131.087 55.4528 142.399 60.1822C146.138 61.7423 150.23 62.6083 154.532 62.6083C158.605 62.6083 162.506 61.8279 166.074 60.41C166.188 60.3723 166.303 60.3244 166.407 60.277L166.522 60.2296C166.57 60.2107 166.608 60.1913 166.655 60.1725C178.292 55.253 185.799 43.9497 185.799 31.3324C185.799 18.6682 178.244 7.32671 166.532 2.4266Z" fill="white"/>
<path d="M166.655 60.1725V60.1822C166.608 60.2011 166.57 60.2199 166.522 60.2296C166.57 60.2108 166.608 60.1914 166.655 60.1725Z" fill="white"/>
<path d="M188.574 76.1632C188.574 76.7502 188.106 77.2844 187.45 77.2844C186.723 77.2844 186.015 77.0604 185.41 76.6586C178.275 71.912 167.129 68.858 154.601 68.858C142.076 68.858 130.928 71.912 123.796 76.6586C123.188 77.0604 122.483 77.2844 121.753 77.2844C120.889 77.2844 120.351 76.3538 120.784 75.6069L130.957 58.027C131.673 56.7905 133.336 56.5164 134.422 57.4459C139.844 62.0848 146.895 64.8868 154.601 64.8868C162.309 64.8868 169.358 62.0843 174.783 57.4465C175.87 56.5175 177.532 56.7921 178.247 58.0281L188.422 75.6069C188.525 75.7868 188.574 75.9774 188.574 76.1632Z" fill="white"/>
<path d="M26.4254 109.339L24.2747 110.938C23.1084 109.412 21.7021 108.257 20.0559 107.475C18.4095 106.694 16.6027 106.303 14.6341 106.303C12.4715 106.303 10.4727 106.818 8.63845 107.848C6.80394 108.879 5.3788 110.263 4.36488 112.002C3.3501 113.742 2.84272 115.702 2.84272 117.883C2.84272 121.167 3.97284 123.812 6.23288 125.819C8.49231 127.825 11.3413 128.827 14.78 128.827C18.5704 128.827 21.7354 127.349 24.2747 124.392L26.4254 126.009C25.0771 127.719 23.394 129.04 21.3771 129.972C19.3602 130.906 17.1128 131.373 14.6341 131.373C9.89552 131.373 6.15973 129.802 3.42602 126.664C1.14193 124.01 0 121.004 0 117.647C0 113.708 1.38783 110.387 4.16411 107.684C6.94021 104.982 10.412 103.631 14.5795 103.631C17.1065 103.631 19.3874 104.131 21.4226 105.13C23.4577 106.13 25.1253 107.533 26.4254 109.339Z" fill="white"/>
<path d="M40.8406 112.756C38.7147 112.756 36.8857 113.545 35.3552 115.12C33.8245 116.696 33.0588 118.598 33.0588 120.828C33.0588 122.271 33.408 123.619 34.1067 124.873C34.8054 126.127 35.7497 127.091 36.9406 127.764C38.1312 128.436 39.4313 128.773 40.8406 128.773C42.2742 128.773 43.5832 128.436 44.7677 127.764C45.9525 127.091 46.8911 126.127 47.5836 124.873C48.2762 123.619 48.6225 122.271 48.6225 120.828C48.6225 118.598 47.8574 116.696 46.3266 115.12C44.7956 113.545 42.967 112.756 40.8406 112.756ZM40.8406 110.248C43.9143 110.248 46.466 111.357 48.4951 113.575C50.3292 115.611 51.2469 118.017 51.2469 120.793C51.2469 123.567 50.2745 125.994 48.331 128.074C46.3867 130.151 43.8902 131.191 40.8406 131.191C37.7788 131.191 35.2788 130.151 33.3414 128.074C31.4036 125.994 30.4346 123.567 30.4346 120.793C30.4346 118.029 31.3517 115.629 33.1866 113.593C35.2153 111.363 37.767 110.248 40.8406 110.248Z" fill="white"/>
<path d="M55.967 123.61L55.9308 121.483C55.8941 120.441 55.9362 119.555 56.0577 118.829C56.3254 116.539 56.9085 114.859 57.8073 113.793C58.6825 112.86 59.5754 112.138 60.4872 111.629C61.9929 110.987 63.7124 110.684 65.6445 110.721C67.1508 110.721 68.5447 111.1 69.8269 111.857C71.108 112.614 72.0225 113.632 72.5694 114.911C73.1162 116.19 73.3894 118.192 73.3894 120.919V131.173H70.838V121.664C70.838 119.363 70.7408 117.822 70.5465 117.047C70.2425 115.727 69.6417 114.79 68.7423 114.239C67.8434 113.687 66.5126 113.411 64.7516 113.411C63.1957 113.411 61.811 113.859 60.5963 114.757C59.381 115.653 58.8158 116.877 58.9017 118.429C58.6701 119.422 58.5551 121.235 58.5551 123.864V131.173H55.967V123.61Z" fill="white"/>
<path d="M86.1831 106.285C84.9198 105.606 83.6803 105.551 82.4656 106.121C81.3719 106.703 80.6668 108.309 80.3515 110.939V112.938H85.0899V115.138H80.3332V131.209H77.7456V110.503C77.7818 108.879 78.116 107.545 78.7476 106.503C79.7199 104.491 81.2747 103.448 83.4131 103.375C84.5063 103.122 85.6972 103.382 86.9854 104.157C86.7786 104.667 86.5114 105.376 86.1831 106.285Z" fill="white"/>
<path d="M107.87 118.72C107.53 117.35 107.032 116.256 106.377 115.438C105.72 114.621 104.851 113.96 103.77 113.457C102.688 112.953 101.552 112.703 100.362 112.703C98.4055 112.703 96.7233 113.332 95.3142 114.592C94.2933 115.514 93.5219 116.89 92.9993 118.72H107.87ZM107.87 124.082L110.021 125.227C109.329 126.621 108.514 127.742 107.579 128.591C106.643 129.44 105.592 130.085 104.427 130.527C103.26 130.97 101.941 131.191 100.472 131.191C97.2156 131.191 94.6696 130.127 92.8357 128C91.0007 125.873 90.0835 123.471 90.0835 120.793C90.0835 118.259 90.8609 116.004 92.4162 114.029C94.3846 111.508 97.0267 110.248 100.344 110.248C103.734 110.248 106.449 111.538 108.491 114.12C109.936 115.937 110.665 118.204 110.677 120.919H92.7261C92.7742 123.246 93.5154 125.153 94.9493 126.637C96.3826 128.122 98.1507 128.863 100.252 128.863C101.273 128.863 102.263 128.685 103.223 128.327C104.183 127.97 105 127.5 105.675 126.919C106.348 126.337 107.081 125.391 107.87 124.082Z" fill="white"/>
<path d="M114.486 122.046V119.647C114.68 118.447 114.959 117.472 115.324 116.72C116.175 114.635 117.316 113.108 118.75 112.138C120.184 111.169 121.374 110.684 122.322 110.684C123.026 110.684 123.78 110.914 124.582 111.375L123.252 113.52C122.122 113.108 121.001 113.442 119.889 114.52C118.777 115.599 118.009 116.774 117.584 118.046C117.268 119.174 117.11 121.289 117.11 124.392V131.136H114.486V122.046Z" fill="white"/>
<path d="M134.916 102.449H137.468L142.789 107.158H139.49L136.264 104.357L132.875 107.158H129.448L134.916 102.449ZM143.591 118.72C143.251 117.35 142.752 116.256 142.096 115.438C141.44 114.621 140.571 113.96 139.49 113.457C138.408 112.953 137.273 112.703 136.082 112.703C134.126 112.703 132.444 113.332 131.034 114.592C130.013 115.514 129.242 116.89 128.72 118.72H143.591ZM143.591 124.082L145.741 125.227C145.048 126.621 144.234 127.742 143.299 128.591C142.363 129.44 141.312 130.085 140.146 130.527C138.98 130.97 137.661 131.191 136.192 131.191C132.935 131.191 130.39 130.127 128.555 128C126.72 125.873 125.803 123.471 125.803 120.793C125.803 118.259 126.581 116.004 128.136 114.029C130.104 111.508 132.747 110.248 136.064 110.248C139.454 110.248 142.169 111.538 144.21 114.12C145.656 115.937 146.385 118.204 146.397 120.919H128.446C128.494 123.246 129.236 125.153 130.669 126.637C132.103 128.122 133.87 128.863 135.973 128.863C136.993 128.863 137.983 128.685 138.943 128.327C139.903 127.97 140.72 127.5 141.394 126.919C142.069 126.337 142.801 125.391 143.591 124.082Z" fill="white"/>
<path d="M151.956 123.61L151.919 121.483C151.883 120.441 151.925 119.555 152.047 118.829C152.314 116.539 152.897 114.859 153.796 113.793C154.671 112.86 155.564 112.138 156.476 111.629C157.982 110.987 159.701 110.684 161.633 110.721C163.139 110.721 164.533 111.1 165.816 111.857C167.097 112.614 168.011 113.632 168.558 114.911C169.104 116.19 169.378 118.192 169.378 120.919V131.173H166.827V121.664C166.827 119.363 166.73 117.822 166.535 117.047C166.231 115.727 165.63 114.79 164.731 114.239C163.832 113.687 162.501 113.411 160.74 113.411C159.184 113.411 157.799 113.859 156.585 114.757C155.37 115.653 154.805 116.877 154.89 118.429C154.659 119.422 154.544 121.235 154.544 123.864V131.173H151.956V123.61Z" fill="white"/>
<path d="M194.254 114.902L192.213 116.175C190.451 113.823 188.045 112.647 184.996 112.647C182.554 112.647 180.528 113.429 178.918 114.993C177.309 116.556 176.504 118.459 176.504 120.702C176.504 122.155 176.874 123.528 177.615 124.819C178.356 126.11 179.371 127.107 180.659 127.81C181.947 128.512 183.392 128.863 184.996 128.863C187.949 128.863 190.354 127.7 192.213 125.373L194.254 126.7C193.294 128.131 192.01 129.236 190.4 130.018C188.79 130.8 186.952 131.191 184.887 131.191C181.74 131.191 179.125 130.191 177.041 128.19C174.957 126.191 173.916 123.762 173.916 120.901C173.916 118.963 174.405 117.165 175.382 115.511C176.361 113.856 177.697 112.566 179.392 111.639C181.087 110.711 182.992 110.248 185.105 110.248C186.418 110.248 187.69 110.448 188.923 110.847C190.157 111.248 191.204 111.772 192.068 112.42C192.93 113.069 193.659 113.896 194.254 114.902Z" fill="white"/>
<path d="M198.793 111.229H201.362V131.173H198.793V111.229ZM200.068 103.031C200.651 103.031 201.153 103.237 201.572 103.648C201.991 104.061 202.201 104.557 202.201 105.139C202.201 105.721 201.991 106.221 201.572 106.639C201.153 107.057 200.651 107.267 200.068 107.267C199.485 107.267 198.987 107.057 198.574 106.639C198.161 106.221 197.954 105.721 197.954 105.139C197.954 104.557 198.161 104.061 198.574 103.648C198.987 103.237 199.485 103.031 200.068 103.031Z" fill="white"/>
<path d="M216.124 112.756C213.998 112.756 212.169 113.545 210.638 115.12C209.108 116.696 208.341 118.598 208.341 120.828C208.341 122.271 208.691 123.619 209.39 124.873C210.088 126.127 211.032 127.091 212.224 127.764C213.415 128.436 214.715 128.773 216.124 128.773C220.68 128.312 223.237 125.664 223.796 120.828C223.796 118.598 223.049 116.696 221.555 115.12C220.06 113.545 218.25 112.756 216.124 112.756ZM216.124 110.248C219.198 110.248 221.749 111.357 223.778 113.575C225.649 115.599 226.585 118.004 226.585 120.793C226.609 127.676 226.609 131.173 226.585 131.282C225.418 131.282 224.513 131.282 223.869 131.282C223.869 131.196 223.869 129.688 223.869 126.755C222.448 129.397 219.866 130.876 216.124 131.191C213.062 131.191 210.561 130.151 208.624 128.073C206.686 125.994 205.718 123.567 205.718 120.793C205.718 118.029 206.634 115.629 208.469 113.593C210.498 111.363 213.05 110.248 216.124 110.248Z" fill="white"/>
<path d="M254.637 132H252.97L245.503 112.961L237.865 132H236.236L228.15 103.457H232.569L237.6 121.219L244.661 103.457H246.325L253.321 121.222L258.435 103.457H262.837L254.637 132Z" fill="white"/>
<path d="M267.381 117.929H280.096C279.816 117.125 279.462 116.456 279.042 115.933C278.468 115.215 277.687 114.623 276.72 114.173C275.75 113.722 274.715 113.493 273.65 113.493C271.879 113.493 270.401 114.046 269.131 115.182C268.419 115.824 267.832 116.746 267.381 117.929ZM273.758 131.983C270.277 131.983 267.505 130.816 265.52 128.517C263.567 126.251 262.577 123.652 262.577 120.792C262.577 118.089 263.418 115.649 265.079 113.541C267.194 110.832 270.073 109.457 273.631 109.457C277.259 109.457 280.209 110.862 282.4 113.631C283.952 115.581 284.746 118.034 284.756 120.917L284.76 121.71H266.854C267.031 123.477 267.674 124.914 268.808 126.089C270.097 127.424 271.645 128.073 273.54 128.073C274.46 128.073 275.366 127.909 276.231 127.586C277.098 127.263 277.842 126.838 278.442 126.321C279.049 125.798 279.733 124.908 280.477 123.675L280.866 123.03L284.36 124.891L284.019 125.579C283.286 127.053 282.406 128.263 281.401 129.177C280.394 130.088 279.249 130.791 277.996 131.267C276.745 131.742 275.32 131.983 273.758 131.983Z" fill="white"/>
<path d="M298.708 113.366C297.442 113.366 296.224 113.689 295.088 114.328C293.942 114.971 293.089 115.816 292.475 116.913C291.865 118.007 291.555 119.252 291.555 120.61C291.555 122.729 292.232 124.444 293.623 125.853C295.01 127.26 296.662 127.944 298.672 127.944C299.968 127.944 301.171 127.623 302.253 126.991C303.35 126.347 304.2 125.475 304.853 124.328C305.497 123.196 305.824 121.969 305.824 120.683C305.824 119.42 305.492 118.188 304.84 117.024C304.192 115.865 303.309 114.957 302.217 114.321C301.126 113.688 299.946 113.366 298.708 113.366ZM298.891 131.983C297.161 131.983 295.51 131.646 293.989 130.98C292.461 130.312 291.042 129.251 289.769 127.827L289.68 127.707C288.534 125.801 287.837 123.892 287.606 122.035L287.6 102.257H291.738V112.195C292.514 111.499 293.346 110.935 294.224 110.509C295.664 109.81 297.258 109.457 298.963 109.457C301.991 109.457 304.615 110.571 306.766 112.767C308.911 114.96 309.999 117.654 309.999 120.774C309.999 123.849 308.904 126.514 306.744 128.693C304.58 130.877 301.938 131.983 298.891 131.983Z" fill="white"/>
<path d="M153.201 47.0932C144.698 47.0932 137.797 40.0831 137.797 31.4261C137.797 22.7697 144.698 15.7591 153.201 15.7591C161.721 15.7591 168.622 22.7697 168.622 31.4261C168.622 40.0831 161.721 47.0932 153.201 47.0932ZM153.201 14.8409C144.19 14.8409 136.877 22.263 136.877 31.4261C136.877 40.5893 144.19 48.027 153.201 48.027C162.228 48.027 169.542 40.5893 169.542 31.4261C169.542 22.263 162.228 14.8409 153.201 14.8409Z" fill="white"/>
<path d="M166.074 60.4101V60.4203L166.407 60.277C166.303 60.3244 166.188 60.3724 166.074 60.4101Z" fill="white"/>
</g>
<defs>
<clipPath id="clip0_100_1856">
<rect width="310" height="132" fill="white"/>
</clipPath>
</defs>
</svg>
