<svg width="209" height="42" viewBox="0 0 209 42" fill="none" xmlns="http://www.w3.org/2000/svg">
<g clip-path="url(#clip0_100_1645)">
<path d="M17.6151 14.7533C16.3633 14.7533 15.345 15.7923 15.345 17.0686C15.345 18.3451 16.3633 19.3842 17.6151 19.3842C18.8668 19.3842 19.8853 18.3451 19.8853 17.0686C19.8853 15.7923 18.8668 14.7533 17.6151 14.7533ZM17.6151 18.445C16.8715 18.445 16.2655 17.8267 16.2655 17.0686C16.2655 16.3086 16.8715 15.6922 17.6151 15.6922C17.7484 15.6922 17.8753 15.7111 17.9962 15.7486C17.7484 15.8569 17.5756 16.1067 17.5756 16.4003C17.5756 16.7917 17.8859 17.1103 18.269 17.1103C18.5586 17.1103 18.8021 16.9313 18.9105 16.6793C18.946 16.8022 18.9647 16.9334 18.9647 17.0686C18.9647 17.8267 18.3585 18.445 17.6151 18.445Z" fill="#274599"/>
<path d="M17.615 11.9393C14.8409 11.9393 12.5853 14.2402 12.5853 17.0678C12.5853 19.8976 14.8409 22.1985 17.615 22.1985C20.3891 22.1985 22.6447 19.8976 22.6447 17.0678C22.6447 14.2402 20.3891 11.9393 17.615 11.9393ZM17.615 20.3204C15.8552 20.3204 14.4263 18.8627 14.4263 17.0678C14.4263 15.2729 15.8552 13.8152 17.615 13.8152C19.3749 13.8152 20.8036 15.2729 20.8036 17.0678C20.8036 18.8627 19.3749 20.3204 17.615 20.3204Z" fill="#274599"/>
<path d="M24.7751 1.30465C24.1753 4.35324 21.4865 6.64981 18.2625 6.64981C12.5392 6.64981 7.8844 11.3038 7.8844 17.0238C7.8844 22.7459 12.5392 27.3996 18.2625 27.3996C21.5177 27.3996 24.2315 29.6862 24.8376 32.7201C30.9711 30.1487 35.2782 24.0913 35.2782 17.0238C35.2782 9.93575 30.942 3.8576 24.7751 1.30465ZM17.6148 25.9506C12.806 25.9506 8.90499 21.9736 8.90499 17.0677C8.90499 12.1616 12.806 8.18674 17.6148 8.18674C22.4258 8.18674 26.3247 12.1616 26.3247 17.0677C26.3247 21.9736 22.4258 25.9506 17.6148 25.9506Z" fill="#F68B1E"/>
<path d="M24.953 32.707C22.9306 33.5566 20.7084 34.0232 18.3779 34.0232C16.0494 34.0232 13.8272 33.5566 11.8049 32.707C5.67135 30.1375 1.36438 24.078 1.36438 17.0129C1.36438 9.9227 5.70055 3.84646 11.8674 1.2916C13.8731 0.458563 16.0725 0.000445337 18.3779 0.000445337C20.6855 0.000445337 22.8849 0.458565 24.8905 1.29378C24.2907 4.33992 21.602 6.63676 18.3779 6.63676C12.6569 6.63676 7.99978 11.293 7.99978 17.0129C7.99978 22.733 12.6569 27.3867 18.3779 27.3867C21.6331 27.3867 24.349 29.675 24.953 32.707Z" fill="#274599"/>
<path d="M36.8375 41.3904C36.8375 41.7091 36.5835 42.0005 36.2273 42.0005C35.8338 42.0005 35.4506 41.8776 35.1213 41.659C31.2539 39.0811 25.21 37.4196 18.4182 37.4196C11.6267 37.4196 5.58272 39.0811 1.7152 41.659C1.38602 41.8776 1.00276 42.0005 0.607074 42.0005C0.140538 42.0005 -0.151047 41.4945 0.0822213 41.0883L5.59939 31.5347C5.98668 30.8625 6.88852 30.7145 7.47796 31.2183C10.4167 33.7402 14.2404 35.2622 18.4182 35.2622C22.5962 35.2622 26.4179 33.7402 29.3607 31.2183C29.9502 30.7145 30.8498 30.8644 31.2395 31.5347L36.7543 41.0883C36.8106 41.1862 36.8375 41.2882 36.8375 41.3904Z" fill="#274599"/>
<path d="M55.3361 12.9537L54.1698 13.824C53.5389 12.9934 52.7745 12.3664 51.8831 11.9418C50.9895 11.5168 50.0108 11.3045 48.9443 11.3045C47.7698 11.3045 46.6867 11.5834 45.6933 12.1438C44.6978 12.7038 43.9249 13.4556 43.3754 14.4006C42.8255 15.3463 42.5506 16.4124 42.5506 17.5972C42.5506 19.3817 43.1627 20.8184 44.3875 21.9097C45.6142 22.9985 47.1574 23.5441 49.0234 23.5441C51.0771 23.5441 52.7932 22.7405 54.1698 21.1329L55.3361 22.0137C54.6051 22.9425 53.6928 23.6588 52.5994 24.1668C51.5062 24.6728 50.2876 24.9269 48.9443 24.9269C46.3743 24.9269 44.3478 24.073 42.8671 22.3677C41.6279 20.9267 41.0093 19.2922 41.0093 17.4681C41.0093 15.3274 41.7612 13.5244 43.2671 12.0541C44.7707 10.5862 46.6535 9.85128 48.913 9.85128C50.2836 9.85128 51.5206 10.124 52.6246 10.6675C53.7262 11.211 54.6321 11.9728 55.3361 12.9537Z" fill="#274599"/>
<path d="M63.1522 13.4477C64.8183 13.4477 66.2011 14.0496 67.3027 15.2553C68.2964 16.361 68.794 17.6685 68.794 19.1782C68.794 20.6858 68.2673 22.004 67.2133 23.1347C66.1595 24.2631 64.8058 24.8297 63.1522 24.8297C61.4921 24.8297 60.1362 24.2631 59.0865 23.1347C58.035 22.004 57.5101 20.6858 57.5101 19.1782C57.5101 17.6769 58.0078 16.3713 59.0011 15.2657C60.103 14.0537 61.4858 13.4477 63.1522 13.4477ZM63.1522 14.8117C62.0003 14.8117 61.0069 15.2386 60.1781 16.0944C59.347 16.9524 58.9323 17.985 58.9323 19.197C58.9323 19.9821 59.1222 20.715 59.501 21.396C59.88 22.0769 60.3926 22.6016 61.0382 22.9658C61.6838 23.3326 62.3878 23.5137 63.1522 23.5137C63.9289 23.5137 64.6391 23.3326 65.2806 22.9658C65.924 22.6016 66.4323 22.0769 66.807 21.396C67.1842 20.715 67.3715 19.9821 67.3715 19.197C67.3715 17.985 66.9571 16.9524 66.1261 16.0944C65.2972 15.2386 64.3038 14.8117 63.1522 14.8117Z" fill="#274599"/>
<path d="M71.3529 20.7088L71.3341 19.5531C71.3135 18.9868 71.3363 18.5057 71.4029 18.1102C71.5468 16.8649 71.8633 15.9528 72.3506 15.3739C72.8254 14.8658 73.3108 14.4743 73.8044 14.1997C74.6207 13.8498 75.5518 13.6851 76.5993 13.7041C77.4157 13.7041 78.1716 13.9099 78.8675 14.3224C79.5631 14.7326 80.0586 15.2864 80.3544 15.9819C80.6503 16.6775 80.8002 17.7645 80.8002 19.247V24.8191H79.4152V19.651C79.4152 18.4017 79.363 17.5645 79.2569 17.1418C79.0924 16.4255 78.7674 15.9154 78.2801 15.6156C77.7926 15.3156 77.07 15.1658 76.1161 15.1658C75.2726 15.1658 74.5209 15.4094 73.8626 15.8987C73.2045 16.3859 72.8983 17.0502 72.9443 17.8935C72.8192 18.4329 72.7566 19.4177 72.7566 20.8461V24.8191H71.3529V20.7088Z" fill="#274599"/>
<path d="M87.7358 11.2941C87.0508 10.9254 86.3781 10.8942 85.72 11.2046C85.1283 11.5211 84.7451 12.3936 84.5743 13.8239V14.909H87.1425V16.1041H84.564V24.8374H83.1603V13.5866C83.1809 12.7038 83.3623 11.979 83.7039 11.4129C84.2309 10.3197 85.0741 9.75307 86.2342 9.71365C86.8278 9.57418 87.4715 9.71583 88.1712 10.1386C88.0586 10.4154 87.9129 10.8006 87.7358 11.2941Z" fill="#274599"/>
<path d="M99.4945 20.9656L100.661 21.5883C100.286 22.3461 99.8442 22.9541 99.3362 23.4145C98.828 23.8768 98.2594 24.2264 97.626 24.468C96.9951 24.7075 96.2786 24.8284 95.4832 24.8284C93.717 24.8284 92.3383 24.2495 91.3427 23.0937C90.3472 21.938 89.8514 20.6325 89.8514 19.177C89.8514 17.8006 90.2724 16.5762 91.1157 15.5017C92.1819 14.1317 93.615 13.4487 95.4144 13.4487C97.2513 13.4487 98.7238 14.1483 99.8298 15.5517C100.615 16.5408 101.008 17.7714 101.017 19.2477H91.2845C91.3093 20.5118 91.7115 21.5466 92.4881 22.3546C93.265 23.1604 94.2252 23.5642 95.3643 23.5642C95.9183 23.5642 96.4537 23.4665 96.9745 23.2727C97.495 23.077 97.9385 22.8229 98.3031 22.5065C98.6697 22.19 99.0654 21.6779 99.4945 20.9656ZM99.4945 18.0526C99.309 17.3071 99.0403 16.7136 98.6841 16.268C98.3282 15.8245 97.8574 15.4642 97.2701 15.1914C96.6849 14.9187 96.0684 14.7812 95.4225 14.7812C94.3628 14.7812 93.4505 15.1248 92.6861 15.8078C92.1321 16.3096 91.7155 17.0572 91.4322 18.0526H99.4945Z" fill="#274599"/>
<path d="M103.081 19.8592V18.5556C103.185 17.904 103.337 17.3729 103.535 16.9648C103.996 15.832 104.616 15.0011 105.393 14.4743C106.17 13.9476 106.815 13.685 107.33 13.685C107.711 13.685 108.119 13.8101 108.555 14.0599L107.834 15.226C107.222 15.0011 106.613 15.1823 106.011 15.7695C105.408 16.3568 104.991 16.9939 104.76 17.6853C104.589 18.2974 104.504 19.4469 104.504 21.1336V24.7983H103.081V19.8592Z" fill="#274599"/>
<path d="M118.861 20.9656L120.027 21.5883C119.652 22.3461 119.209 22.9541 118.703 23.4145C118.196 23.8768 117.626 24.2264 116.993 24.468C116.362 24.7075 115.645 24.8284 114.849 24.8284C113.084 24.8284 111.705 24.2495 110.709 23.0937C109.714 21.938 109.218 20.6325 109.218 19.177C109.218 17.8006 109.639 16.5762 110.482 15.5017C111.549 14.1317 112.981 13.4487 114.781 13.4487C116.618 13.4487 118.09 14.1483 119.196 15.5517C119.981 16.5408 120.375 17.7714 120.383 19.2477H110.649C110.676 20.5118 111.078 21.5466 111.855 22.3546C112.632 23.1604 113.592 23.5642 114.731 23.5642C115.285 23.5642 115.82 23.4665 116.341 23.2727C116.862 23.077 117.305 22.8229 117.67 22.5065C118.036 22.19 118.432 21.6779 118.861 20.9656ZM118.861 18.0526C118.676 17.3071 118.407 16.7136 118.051 16.268C117.694 15.8245 117.224 15.4642 116.639 15.1914C116.051 14.9187 115.435 14.7812 114.789 14.7812C113.729 14.7812 112.817 15.1248 112.053 15.8078C111.498 16.3096 111.082 17.0572 110.799 18.0526H118.861ZM114.158 9.20904H115.541L118.426 11.7682H116.639L114.889 10.2463L113.05 11.7682H111.193L114.158 9.20904Z" fill="#274599"/>
<path d="M123.396 20.7088L123.378 19.5531C123.357 18.9868 123.38 18.5057 123.446 18.1102C123.59 16.8649 123.907 15.9528 124.394 15.3739C124.869 14.8658 125.352 14.4743 125.848 14.1997C126.664 13.8498 127.595 13.6851 128.643 13.7041C129.461 13.7041 130.215 13.9099 130.911 14.3224C131.606 14.7326 132.102 15.2864 132.398 15.9819C132.694 16.6775 132.843 17.7645 132.843 19.247V24.8191H131.459V19.651C131.459 18.4017 131.406 17.5645 131.3 17.1418C131.138 16.4255 130.811 15.9154 130.324 15.6156C129.836 15.3156 129.113 15.1658 128.16 15.1658C127.316 15.1658 126.564 15.4094 125.906 15.8987C125.248 16.3859 124.942 17.0502 124.988 17.8935C124.863 18.4329 124.8 19.4177 124.8 20.8461V24.8191H123.396V20.7088Z" fill="#274599"/>
<path d="M146.33 15.9767L145.225 16.6681C144.268 15.3915 142.965 14.7524 141.311 14.7524C139.986 14.7524 138.889 15.1772 138.016 16.0266C137.144 16.8762 136.706 17.9091 136.706 19.1293C136.706 19.9184 136.908 20.664 137.308 21.3658C137.71 22.0673 138.26 22.6087 138.96 22.99C139.657 23.3731 140.44 23.5625 141.311 23.5625C142.911 23.5625 144.216 22.9316 145.225 21.6675L146.33 22.3881C145.81 23.1647 145.114 23.7666 144.241 24.1914C143.367 24.6162 142.371 24.8286 141.251 24.8286C139.545 24.8286 138.127 24.2852 136.998 23.1982C135.869 22.1112 135.302 20.7909 135.302 19.2375C135.302 18.1839 135.569 17.2074 136.098 16.3078C136.629 15.4083 137.354 14.7065 138.272 14.2046C139.191 13.6986 140.224 13.4469 141.369 13.4469C142.082 13.4469 142.771 13.5572 143.44 13.7737C144.108 13.9901 144.677 14.2755 145.145 14.6274C145.612 14.9813 146.008 15.4311 146.33 15.9767Z" fill="#274599"/>
<path d="M149.482 9.52556C149.799 9.52556 150.07 9.63812 150.297 9.86079C150.524 10.0856 150.638 10.3543 150.638 10.6707C150.638 10.9875 150.524 11.2602 150.297 11.4872C150.07 11.7142 149.799 11.8268 149.482 11.8268C149.166 11.8268 148.897 11.7142 148.672 11.4872C148.447 11.2602 148.337 10.9875 148.337 10.6707C148.337 10.3543 148.447 10.0856 148.672 9.86079C148.897 9.63812 149.166 9.52556 149.482 9.52556ZM148.791 13.9817H150.184V24.8199H148.791V13.9817Z" fill="#274599"/>
<path d="M158.187 13.4476C159.853 13.4476 161.236 14.0496 162.338 15.2552C163.352 16.3568 163.858 17.6623 163.858 19.1782C163.871 22.918 163.871 24.819 163.858 24.8774H162.386V22.4183C161.615 23.8529 160.216 24.6568 158.187 24.8296C156.527 24.8296 155.172 24.263 154.122 23.1346C153.07 22.0039 152.545 20.6857 152.545 19.1782C152.545 17.6769 153.043 16.3712 154.039 15.2656C155.138 14.0537 156.521 13.4476 158.187 13.4476ZM158.187 14.8117C157.035 14.8117 156.044 15.2385 155.213 16.0943C154.384 16.9524 153.968 17.985 153.968 19.1969C153.968 19.982 154.157 20.7149 154.536 21.3959C154.915 22.0769 155.428 22.6015 156.073 22.9658C156.719 23.3325 157.423 23.5136 158.187 23.5136C160.657 23.2637 162.044 21.8249 162.346 19.1969C162.346 17.985 161.942 16.9524 161.132 16.0943C160.322 15.2385 159.341 14.8117 158.187 14.8117Z" fill="#274599"/>
<path d="M183.383 9.72703L178.988 25.0527H178.217L174.115 14.5581L169.907 25.0527H169.157L164.826 9.72703H167.033L169.824 19.5763L173.719 9.72703H174.489L178.363 19.5763L181.196 9.72703H183.383Z" fill="#274599"/>
<path d="M189.381 14.9952C189.964 14.9952 190.547 15.1201 191.088 15.37C191.609 15.6198 192.046 15.9532 192.38 16.3696C192.63 16.6818 192.838 17.0982 193.004 17.5981H185.84C186.111 16.8693 186.444 16.3279 186.86 15.9323C187.569 15.3076 188.402 14.9952 189.381 14.9952ZM195.316 19.1181C195.296 17.5772 194.879 16.2655 194.046 15.2243C192.88 13.746 191.297 12.9964 189.359 12.9964C187.464 12.9964 185.923 13.725 184.798 15.1827C183.924 16.307 183.466 17.6189 183.466 19.0556C183.466 20.5965 183.987 21.9917 185.049 23.1995C186.09 24.428 187.569 25.0527 189.443 25.0527C190.276 25.0527 191.026 24.9277 191.692 24.6569C192.359 24.407 192.984 24.0325 193.525 23.5535C194.046 23.0535 194.525 22.4081 194.921 21.6169L195.067 21.3254L193.317 20.4091L193.15 20.6798C192.755 21.3461 192.38 21.8459 192.046 22.1374C191.692 22.429 191.297 22.6579 190.818 22.8453C190.339 23.012 189.838 23.1161 189.318 23.1161C188.256 23.1161 187.402 22.7412 186.694 21.9917C186.048 21.3254 185.673 20.4924 185.59 19.4722H195.316V19.1181Z" fill="#274599"/>
<path d="M206.917 18.9932C206.917 19.722 206.729 20.3883 206.376 21.0339C206.021 21.6585 205.522 22.1582 204.938 22.5124C204.334 22.8663 203.668 23.0327 202.939 23.0327C201.835 23.0327 200.918 22.6579 200.148 21.8667C199.356 21.0963 198.982 20.1385 198.982 18.9515C198.982 18.202 199.17 17.5148 199.502 16.911C199.836 16.307 200.335 15.828 200.96 15.4742C201.585 15.1201 202.252 14.9327 202.96 14.9327C203.647 14.9327 204.314 15.1201 204.918 15.4534C205.522 15.8072 206.001 16.3279 206.376 16.9733C206.729 17.6189 206.917 18.3061 206.917 18.9932ZM207.271 14.7663C206.125 13.5793 204.709 12.9964 203.106 12.9964C202.189 12.9964 201.335 13.1837 200.565 13.5584C200.044 13.8082 199.544 14.1622 199.086 14.5997V9.08159H197.024V19.6803L197.045 19.722C197.149 20.7214 197.524 21.7419 198.149 22.7621L198.191 22.8246C198.857 23.5742 199.628 24.1572 200.44 24.5111C201.252 24.8653 202.127 25.0527 203.064 25.0527C204.688 25.0527 206.104 24.4488 207.25 23.2829C208.395 22.1168 209 20.7005 209 19.0556C209 17.3689 208.416 15.9323 207.271 14.7663Z" fill="#274599"/>
</g>
<defs>
<clipPath id="clip0_100_1645">
<rect width="209" height="42" fill="white"/>
</clipPath>
</defs>
</svg>
