<svg width="309" height="132" viewBox="0 0 309 132" fill="none" xmlns="http://www.w3.org/2000/svg">
<g clip-path="url(#clip0_102_1905)">
<path d="M152.72 27.1868C150.416 27.1868 148.547 29.101 148.547 31.4516C148.547 33.8027 150.416 35.7174 152.72 35.7174C155.025 35.7174 156.894 33.8027 156.894 31.4516C156.894 29.101 155.025 27.1868 152.72 27.1868ZM152.72 33.986C151.35 33.986 150.236 32.8516 150.236 31.4516C150.236 30.0526 151.35 28.9177 152.72 28.9177C152.966 28.9177 153.199 28.9528 153.421 29.0191C152.966 29.2179 152.647 29.6819 152.647 30.224C152.647 30.945 153.219 31.5297 153.924 31.5297C154.453 31.5297 154.905 31.2026 155.103 30.7349C155.169 30.9644 155.204 31.2026 155.204 31.4516C155.204 32.8516 154.087 33.986 152.72 33.986Z" fill="#274599"/>
<path d="M152.72 22.0011C147.616 22.0011 143.466 26.2395 143.466 31.4526C143.466 36.6653 147.616 40.9031 152.72 40.9031C157.825 40.9031 161.975 36.6653 161.975 31.4526C161.975 26.2395 157.825 22.0011 152.72 22.0011ZM152.72 37.445C149.485 37.445 146.853 34.7587 146.853 31.4526C146.853 28.146 149.485 25.4597 152.72 25.4597C155.956 25.4597 158.588 28.146 158.588 31.4526C158.588 34.7587 155.956 37.445 152.72 37.445Z" fill="#274599"/>
<path d="M165.891 2.40671C164.786 8.02082 159.841 12.2548 153.912 12.2548C143.384 12.2548 134.819 20.8328 134.819 31.3713C134.819 41.9135 143.384 50.4872 153.912 50.4872C159.9 50.4872 164.891 54.7018 166.004 60.2889C177.287 55.5521 185.211 44.3897 185.211 31.3713C185.211 18.3098 177.237 7.11225 165.891 2.40671ZM152.72 47.8164C143.871 47.8164 136.699 40.4903 136.699 31.4494C136.699 22.4118 143.871 15.0856 152.72 15.0856C161.57 15.0856 168.741 22.4118 168.741 31.4494C168.741 40.4903 161.57 47.8164 152.72 47.8164Z" fill="#F68B1E"/>
<path d="M166.219 60.2668C162.496 61.8301 158.413 62.6918 154.126 62.6918C149.839 62.6918 145.751 61.8301 142.03 60.2668C130.746 55.5294 122.823 44.367 122.823 31.3491C122.823 18.2876 130.805 7.0901 142.146 2.38024C145.837 0.848193 149.882 0.0021495 154.126 0.0021495C158.37 0.0021495 162.415 0.848198 166.106 2.38456C165 7.99867 160.056 12.2327 154.126 12.2327C143.598 12.2327 135.033 20.8107 135.033 31.3491C135.033 41.8913 143.598 50.465 154.126 50.465C160.114 50.465 165.105 54.6796 166.219 60.2668Z" fill="#274599"/>
<path d="M188.081 76.2669C188.081 76.8554 187.614 77.3894 186.96 77.3894C186.236 77.3894 185.528 77.1636 184.924 76.7616C177.811 72.0086 166.691 68.9526 154.198 68.9526C141.704 68.9526 130.585 72.0086 123.471 76.7616C122.864 77.1636 122.163 77.3894 121.435 77.3894C120.575 77.3894 120.038 76.4577 120.47 75.7092L130.615 58.1059C131.328 56.8697 132.986 56.5927 134.069 57.5245C139.48 62.1718 146.512 64.9756 154.198 64.9756C161.883 64.9756 168.915 62.1686 174.326 57.5245C175.409 56.597 177.067 56.8697 177.779 58.1097L187.93 75.7092C188.03 75.8886 188.081 76.0794 188.081 76.2669Z" fill="#274599"/>
<path d="M26.3577 109.483L24.2125 111.086C23.0486 109.558 21.6468 108.4 20.0038 107.617C18.3609 106.836 16.5621 106.443 14.5961 106.443C12.439 106.443 10.4458 106.961 8.61602 107.991C6.78598 109.024 5.36503 110.407 4.35647 112.151C3.34434 113.894 2.83838 115.855 2.83838 118.037C2.83838 121.328 3.96339 123.976 6.21761 125.984C8.47186 127.991 11.314 128.997 14.7439 128.997C18.5244 128.997 21.6821 127.516 24.2125 124.556L26.3577 126.175C25.0145 127.886 23.3326 129.208 21.3237 130.144C19.311 131.08 17.0683 131.547 14.5961 131.547C9.87345 131.547 6.14384 129.972 3.41812 126.83C1.14056 124.174 0 121.165 0 117.804C0 113.859 1.38608 110.532 4.15425 107.827C6.92245 105.121 10.3874 103.768 14.5417 103.768C17.0643 103.768 19.3383 104.271 21.3666 105.269C23.3988 106.271 25.0613 107.675 26.3577 109.483Z" fill="#274599"/>
<path d="M40.7351 110.394C43.7991 110.394 46.3455 111.505 48.3699 113.727C50.1998 115.762 51.1148 118.172 51.1148 120.952C51.1148 123.728 50.1451 126.161 48.2062 128.242C46.2675 130.32 43.7757 131.366 40.7351 131.366C37.6828 131.366 35.1871 130.32 33.2561 128.242C31.321 126.161 30.3555 123.728 30.3555 120.952C30.3555 118.184 31.2705 115.782 33.1003 113.743C35.1248 111.508 37.6712 110.394 40.7351 110.394ZM40.7351 112.905C38.6132 112.905 36.7911 113.696 35.2648 115.271C33.7388 116.85 32.9719 118.753 32.9719 120.987C32.9719 122.433 33.3223 123.783 34.0192 125.038C34.716 126.293 35.6581 127.26 36.8455 127.931C38.0332 128.605 39.3297 128.941 40.7351 128.941C42.1641 128.941 43.472 128.605 44.6517 127.931C45.8356 127.26 46.7699 126.293 47.4587 125.038C48.152 123.783 48.4986 122.433 48.4986 120.987C48.4986 118.753 47.7351 116.85 46.2053 115.271C44.679 113.696 42.8569 112.905 40.7351 112.905Z" fill="#274599"/>
<path d="M55.8215 123.772L55.7865 121.644C55.7515 120.599 55.7903 119.714 55.9108 118.985C56.1793 116.692 56.76 115.012 57.6592 113.944C58.5315 113.008 59.4226 112.287 60.3299 111.776C61.8328 111.132 63.5457 110.832 65.4732 110.868C66.9757 110.868 68.3656 111.245 69.6464 112.006C70.9233 112.762 71.8344 113.78 72.3795 115.062C72.9246 116.341 73.1974 118.35 73.1974 121.078V131.344H70.6548V121.823C70.6548 119.519 70.5574 117.979 70.3626 117.203C70.0591 115.878 69.4596 114.942 68.5642 114.388C67.6688 113.838 66.3412 113.562 64.5816 113.562C63.0318 113.562 61.6499 114.01 60.4391 114.907C59.2283 115.807 58.6633 117.031 58.7489 118.583C58.5196 119.578 58.4029 121.394 58.4029 124.026V131.344H55.8215V123.772Z" fill="#274599"/>
<path d="M85.9589 106.426C84.6976 105.748 83.4631 105.693 82.2523 106.262C81.1621 106.843 80.4577 108.453 80.1424 111.085V113.089H84.8687V115.288H80.123V131.382H77.5416V110.648C77.5804 109.022 77.9113 107.689 78.542 106.644C79.5112 104.628 81.0609 103.587 83.1946 103.513C84.2848 103.26 85.4757 103.521 86.7607 104.293C86.5503 104.804 86.2856 105.513 85.9589 106.426Z" fill="#274599"/>
<path d="M107.589 124.247L109.734 125.393C109.045 126.788 108.232 127.912 107.298 128.761C106.367 129.611 105.319 130.258 104.156 130.699C102.992 131.143 101.675 131.366 100.212 131.366C96.9608 131.366 94.422 130.297 92.5924 128.169C90.7622 126.04 89.8474 123.634 89.8474 120.952C89.8474 118.414 90.6261 116.16 92.1759 114.179C94.1379 111.657 96.7736 110.394 100.083 110.394C103.462 110.394 106.172 111.688 108.209 114.269C109.649 116.09 110.377 118.359 110.389 121.081H92.4831C92.5337 123.408 93.2736 125.319 94.7023 126.804C96.1316 128.289 97.895 129.034 99.9899 129.034C101.01 129.034 101.998 128.855 102.956 128.496C103.91 128.137 104.728 127.669 105.401 127.085C106.071 126.503 106.803 125.557 107.589 124.247ZM107.589 118.878C107.251 117.505 106.752 116.41 106.098 115.59C105.444 114.772 104.58 114.109 103.501 113.606C102.419 113.104 101.29 112.85 100.102 112.85C98.1479 112.85 96.4701 113.481 95.0645 114.745C94.0485 115.665 93.2774 117.045 92.756 118.878H107.589Z" fill="#274599"/>
<path d="M114.187 122.207V119.805C114.382 118.604 114.659 117.626 115.025 116.873C115.869 114.787 117.01 113.259 118.443 112.288C119.871 111.318 121.059 110.83 122.001 110.83C122.706 110.83 123.457 111.06 124.26 111.52L122.932 113.668C121.803 113.259 120.686 113.59 119.576 114.67C118.466 115.75 117.699 116.928 117.279 118.202C116.963 119.329 116.804 121.45 116.804 124.554V131.306H114.187V122.207Z" fill="#274599"/>
<path d="M143.216 124.247L145.361 125.393C144.668 126.788 143.858 127.912 142.923 128.761C141.989 129.611 140.942 130.258 139.782 130.699C138.617 131.143 137.302 131.366 135.834 131.366C132.587 131.366 130.048 130.297 128.219 128.169C126.389 126.04 125.474 123.634 125.474 120.952C125.474 118.414 126.249 116.16 127.802 114.179C129.764 111.657 132.4 110.394 135.709 110.394C139.089 110.394 141.798 111.688 143.835 114.269C145.275 116.09 146.003 118.359 146.015 121.081H128.109C128.16 123.408 128.9 125.319 130.329 126.804C131.757 128.289 133.521 129.034 135.616 129.034C136.636 129.034 137.621 128.855 138.579 128.496C139.536 128.137 140.354 127.669 141.024 127.085C141.697 126.503 142.425 125.557 143.216 124.247ZM143.216 118.878C142.877 117.505 142.379 116.41 141.724 115.59C141.07 114.772 140.206 114.109 139.124 113.606C138.045 113.104 136.912 112.85 135.725 112.85C133.774 112.85 132.096 113.481 130.691 114.745C129.675 115.665 128.904 117.045 128.382 118.878H143.216ZM134.565 102.585H137.107L142.418 107.298H139.124L135.908 104.495L132.528 107.298H129.11L134.565 102.585Z" fill="#274599"/>
<path d="M151.559 123.772L151.524 121.644C151.484 120.599 151.527 119.714 151.648 118.985C151.917 116.692 152.497 115.012 153.396 113.944C154.269 113.008 155.16 112.287 156.068 111.776C157.57 111.132 159.283 110.832 161.21 110.868C162.713 110.868 164.103 111.245 165.384 112.006C166.661 112.762 167.571 113.78 168.117 115.062C168.662 116.341 168.935 118.35 168.935 121.078V131.344H166.392V121.823C166.392 119.519 166.295 117.979 166.1 117.203C165.797 115.878 165.197 114.942 164.301 114.388C163.406 113.838 162.078 113.562 160.319 113.562C158.769 113.562 157.387 114.01 156.176 114.907C154.965 115.807 154.401 117.031 154.487 118.583C154.257 119.578 154.14 121.394 154.14 124.026V131.344H151.559V123.772Z" fill="#274599"/>
<path d="M193.747 115.053L191.711 116.328C189.955 113.973 187.552 112.796 184.512 112.796C182.078 112.796 180.058 113.579 178.45 115.143C176.846 116.71 176.044 118.617 176.044 120.863C176.044 122.317 176.413 123.689 177.149 124.984C177.889 126.274 178.902 127.272 180.186 127.978C181.471 128.679 182.915 129.035 184.512 129.035C187.459 129.035 189.858 127.869 191.711 125.537L193.747 126.867C192.789 128.297 191.508 129.405 189.904 130.188C188.296 130.972 186.462 131.362 184.403 131.362C181.265 131.362 178.656 130.363 176.581 128.36C174.502 126.356 173.463 123.923 173.463 121.061C173.463 119.12 173.949 117.318 174.926 115.661C175.899 114.008 177.231 112.714 178.925 111.786C180.614 110.858 182.515 110.394 184.621 110.394C185.933 110.394 187.198 110.593 188.429 110.994C189.659 111.396 190.706 111.919 191.566 112.569C192.427 113.217 193.151 114.047 193.747 115.053Z" fill="#274599"/>
<path d="M199.545 103.168C200.126 103.168 200.627 103.374 201.044 103.787C201.465 104.2 201.671 104.696 201.671 105.281C201.671 105.861 201.465 106.36 201.044 106.781C200.627 107.198 200.126 107.409 199.545 107.409C198.965 107.409 198.467 107.198 198.054 106.781C197.641 106.36 197.435 105.861 197.435 105.281C197.435 104.696 197.641 104.2 198.054 103.787C198.467 103.374 198.965 103.168 199.545 103.168ZM198.272 111.378H200.834V131.348H198.272V111.378Z" fill="#274599"/>
<path d="M215.558 110.393C218.623 110.393 221.168 111.504 223.193 113.727C225.058 115.75 225.993 118.16 225.993 120.952C226.016 127.845 226.016 131.346 225.993 131.455H223.283V126.921C221.866 129.568 219.292 131.046 215.558 131.366C212.506 131.366 210.01 130.32 208.079 128.242C206.144 126.161 205.179 123.727 205.179 120.952C205.179 118.183 206.093 115.782 207.924 113.743C209.948 111.508 212.494 110.393 215.558 110.393ZM215.558 112.904C213.437 112.904 211.615 113.696 210.088 115.271C208.562 116.85 207.799 118.753 207.799 120.987C207.799 122.433 208.145 123.783 208.843 125.038C209.54 126.293 210.482 127.26 211.669 127.931C212.857 128.605 214.153 128.941 215.558 128.941C220.102 128.48 222.652 125.829 223.213 120.987C223.213 118.753 222.465 116.85 220.974 115.271C219.482 113.696 217.68 112.904 215.558 112.904Z" fill="#274599"/>
<path d="M258.355 104.385L252.775 123.845L245.141 104.385H244.56L236.855 123.845L231.362 104.385H228.598L236.217 131.381H236.708L244.868 110.959L252.845 131.381H253.375L261.103 104.385H258.355Z" fill="#274599"/>
<path d="M261.928 103.773L253.831 132.001H252.429L244.876 112.662L237.128 132.001H235.765L227.785 103.773H231.833L236.934 121.902L244.137 103.773H245.577L252.702 121.902L257.88 103.773H261.928Z" fill="#274599"/>
<path d="M280.421 124.247L282.567 125.393C281.874 126.788 281.064 127.912 280.129 128.761C279.199 129.611 278.148 130.258 276.988 130.699C275.823 131.143 274.507 131.366 273.043 131.366C269.792 131.366 267.255 130.297 265.425 128.169C263.594 126.04 262.68 123.634 262.68 120.952C262.68 118.414 263.458 116.16 265.008 114.179C266.97 111.657 269.606 110.394 272.915 110.394C276.295 110.394 279.005 111.688 281.041 114.269C282.481 116.09 283.209 118.359 283.221 121.081H265.315C265.366 123.408 266.106 125.319 267.535 126.804C268.963 128.289 270.727 129.034 272.822 129.034C273.842 129.034 274.831 128.855 275.784 128.496C276.742 128.137 277.56 127.669 278.23 127.085C278.903 126.503 279.635 125.557 280.421 124.247ZM280.421 118.878C280.082 117.505 279.585 116.41 278.93 115.59C278.277 114.772 277.412 114.109 276.33 113.606C275.251 113.104 274.122 112.85 272.935 112.85C270.98 112.85 269.302 113.481 267.897 114.745C266.88 115.665 266.11 117.045 265.588 118.878H280.421Z" fill="#274599"/>
<path d="M266.445 118.237C266.912 116.951 267.536 115.898 268.314 115.196C269.598 114.027 271.117 113.48 272.947 113.48C274.037 113.48 275.088 113.715 276.062 114.182C277.074 114.611 277.852 115.235 278.436 115.976C278.903 116.56 279.294 117.34 279.604 118.237H266.445ZM283.848 121.083C283.809 118.237 283.031 115.819 281.512 113.87C279.371 111.141 276.489 109.777 272.908 109.777C269.405 109.777 266.6 111.141 264.538 113.792C262.902 115.858 262.045 118.276 262.045 120.966C262.045 123.773 263.019 126.347 264.966 128.569C266.912 130.831 269.638 132.001 273.024 132.001C274.582 132.001 275.984 131.728 277.191 131.26C278.436 130.791 279.565 130.129 280.538 129.232C281.551 128.335 282.407 127.127 283.109 125.684L283.381 125.138L280.189 123.423L279.877 123.929C279.138 125.177 278.436 126.074 277.814 126.62C277.23 127.166 276.451 127.595 275.555 127.906C274.699 128.257 273.764 128.413 272.83 128.413C270.883 128.413 269.287 127.75 267.963 126.386C266.795 125.138 266.134 123.579 265.978 121.707H283.848V121.083Z" fill="#274599"/>
<path d="M301.563 127.321C300.434 127.946 299.227 128.296 297.903 128.296C295.84 128.296 294.165 127.595 292.725 126.152C291.323 124.709 290.622 122.954 290.622 120.771C290.622 119.367 290.934 118.121 291.557 116.989C292.179 115.858 293.075 114.962 294.243 114.338C295.411 113.676 296.618 113.325 297.942 113.325C299.187 113.325 300.395 113.676 301.524 114.338C302.614 114.962 303.549 115.898 304.21 117.106C304.872 118.276 305.184 119.563 305.184 120.849C305.184 122.175 304.872 123.423 304.21 124.593C303.549 125.723 302.653 126.659 301.563 127.321ZM305.845 113.051C303.743 110.869 301.135 109.777 298.176 109.777C296.502 109.777 294.945 110.128 293.542 110.79C292.57 111.297 291.635 111.921 290.817 112.74V102.564H287.002V122.097L287.04 122.175C287.235 124.008 287.936 125.918 289.065 127.789L289.142 127.867C290.389 129.271 291.79 130.324 293.27 130.987C294.789 131.649 296.424 132.001 298.098 132.001C301.095 132.001 303.704 130.908 305.806 128.725C307.948 126.581 308.999 123.969 308.999 120.928C308.999 117.847 307.948 115.196 305.845 113.051Z" fill="#274599"/>
</g>
<defs>
<clipPath id="clip0_102_1905">
<rect width="309" height="132" fill="white"/>
</clipPath>
</defs>
</svg>
